<svg xmlns="http://www.w3.org/2000/svg" width="920" height="520" viewBox="0 0 920 520">
  <defs>
    <linearGradient id="bg" x1="0" x2="1" y1="0" y2="1">
      <stop offset="0" stop-color="#0a0f10"/>
      <stop offset="1" stop-color="#050607"/>
    </linearGradient>
    <linearGradient id="g" x1="0" x2="0" y1="0" y2="1">
      <stop offset="0" stop-color="#10b981" stop-opacity="0.9"/>
      <stop offset="1" stop-color="#14b8a6" stop-opacity="0.5"/>
    </linearGradient>
    <filter id="glow">
      <feGaussianBlur stdDeviation="10" result="b"/>
      <feColorMatrix in="b" type="matrix"
        values="0 0 0 0 0.06  0 0 0 0 0.90  0 0 0 0 0.60  0 0 0 0.9 0"/>
      <feMerge><feMergeNode/><feMergeNode in="SourceGraphic"/></feMerge>
    </filter>
  </defs>
  <rect x="0" y="0" width="920" height="520" rx="22" fill="url(#bg)" stroke="rgba(255,255,255,0.10)"/>
  <circle cx="120" cy="110" r="120" fill="#10b981" opacity="0.12"/>
  <circle cx="820" cy="90" r="140" fill="#14b8a6" opacity="0.10"/>
  <g opacity="0.14">
    <path d="M0 300 C200 260 320 340 520 300 C680 270 770 310 920 290" fill="none" stroke="#fff" stroke-width="1"/>
    <path d="M0 360 C220 320 340 420 540 360 C710 312 780 360 920 340" fill="none" stroke="#fff" stroke-width="1"/>
  </g>
  <rect x="70" y="160" width="780" height="280" rx="18" fill="rgba(255,255,255,0.03)" stroke="rgba(255,255,255,0.10)"/>
  <g transform="translate(110,205)">
    <text x="0" y="0" fill="rgba(255,255,255,0.92)" font-family="system-ui,Segoe UI,Arial" font-size="22" font-weight="700">Protection</text>
    <text x="0" y="32" fill="rgba(255,255,255,0.65)" font-family="system-ui,Segoe UI,Arial" font-size="14">Temporary placeholder image (dashboard style)</text>
    <g transform="translate(0,60)">
      <rect x="0" y="0" width="280" height="16" rx="8" fill="rgba(255,255,255,0.10)"/>
      <rect x="0" y="34" width="340" height="16" rx="8" fill="rgba(255,255,255,0.10)"/>
      <rect x="0" y="68" width="220" height="16" rx="8" fill="rgba(255,255,255,0.10)"/>
    </g>
    <g transform="translate(420,70)" filter="url(#glow)">
      <rect x="0" y="120" width="22" height="80" rx="6" fill="url(#g)"/>
      <rect x="44" y="80" width="22" height="120" rx="6" fill="url(#g)"/>
      <rect x="88" y="40" width="22" height="160" rx="6" fill="url(#g)"/>
      <rect x="132" y="100" width="22" height="100" rx="6" fill="url(#g)"/>
      <rect x="176" y="60" width="22" height="140" rx="6" fill="url(#g)"/>
    </g>
  </g>
</svg>